  0
SECTION
  2
HEADER
  9
$ACADVER
  1
AC1032
  9
$ACADMAINTVER
 90
4
  9
$DWGCODEPAGE
  3
ANSI_1252
  9
$LASTSAVEDBY
  1
ezdxf
  9
$REQUIREDVERSIONS
160
0
  9
$INSBASE
 10
0.0
 20
0.0
 30
0.0
  9
$EXTMIN
 10
1e+20
 20
1e+20
 30
1e+20
  9
$EXTMAX
 10
-1e+20
 20
-1e+20
 30
-1e+20
  9
$LIMMIN
 10
0.0
 20
0.0
  9
$LIMMAX
 10
420.0
 20
297.0
  9
$ORTHOMODE
 70
0
  9
$REGENMODE
 70
1
  9
$FILLMODE
 70
1
  9
$QTEXTMODE
 70
0
  9
$MIRRTEXT
 70
1
  9
$LTSCALE
 40
1.0
  9
$ATTMODE
 70
1
  9
$TEXTSIZE
 40
2.5
  9
$TRACEWID
 40
1.0
  9
$TEXTSTYLE
  7
Standard
  9
$CLAYER
  8
0
  9
$CELTYPE
  6
ByLayer
  9
$CECOLOR
 62
256
  9
$CELTSCALE
 40
1.0
  9
$DISPSILH
 70
0
  9
$DIMSCALE
 40
1.0
  9
$DIMASZ
 40
2.5
  9
$DIMEXO
 40
0.625
  9
$DIMDLI
 40
3.75
  9
$DIMRND
 40
0.0
  9
$DIMDLE
 40
0.0
  9
$DIMEXE
 40
1.25
  9
$DIMTP
 40
0.0
  9
$DIMTM
 40
0.0
  9
$DIMTXT
 40
2.5
  9
$DIMCEN
 40
2.5
  9
$DIMTSZ
 40
0.0
  9
$DIMTOL
 70
0
  9
$DIMLIM
 70
0
  9
$DIMTIH
 70
0
  9
$DIMTOH
 70
0
  9
$DIMSE1
 70
0
  9
$DIMSE2
 70
0
  9
$DIMTAD
 70
1
  9
$DIMZIN
 70
8
  9
$DIMBLK
  1

  9
$DIMASO
 70
1
  9
$DIMSHO
 70
1
  9
$DIMPOST
  1

  9
$DIMAPOST
  1

  9
$DIMALT
 70
0
  9
$DIMALTD
 70
3
  9
$DIMALTF
 40
0.03937007874
  9
$DIMLFAC
 40
1.0
  9
$DIMTOFL
 70
1
  9
$DIMTVP
 40
0.0
  9
$DIMTIX
 70
0
  9
$DIMSOXD
 70
0
  9
$DIMSAH
 70
0
  9
$DIMBLK1
  1

  9
$DIMBLK2
  1

  9
$DIMSTYLE
  2
ISO-25
  9
$DIMCLRD
 70
0
  9
$DIMCLRE
 70
0
  9
$DIMCLRT
 70
0
  9
$DIMTFAC
 40
1.0
  9
$DIMGAP
 40
0.625
  9
$DIMJUST
 70
0
  9
$DIMSD1
 70
0
  9
$DIMSD2
 70
0
  9
$DIMTOLJ
 70
0
  9
$DIMTZIN
 70
8
  9
$DIMALTZ
 70
0
  9
$DIMALTTZ
 70
0
  9
$DIMUPT
 70
0
  9
$DIMDEC
 70
2
  9
$DIMTDEC
 70
2
  9
$DIMALTU
 70
2
  9
$DIMALTTD
 70
3
  9
$DIMTXSTY
  7
Standard
  9
$DIMAUNIT
 70
0
  9
$DIMADEC
 70
0
  9
$DIMALTRND
 40
0.0
  9
$DIMAZIN
 70
0
  9
$DIMDSEP
 70
44
  9
$DIMATFIT
 70
3
  9
$DIMFRAC
 70
0
  9
$DIMLDRBLK
  1

  9
$DIMLUNIT
 70
2
  9
$DIMLWD
 70
-2
  9
$DIMLWE
 70
-2
  9
$DIMTMOVE
 70
0
  9
$DIMFXL
 40
1.0
  9
$DIMFXLON
 70
0
  9
$DIMJOGANG
 40
0.785398163397
  9
$DIMTFILL
 70
0
  9
$DIMTFILLCLR
 70
0
  9
$DIMARCSYM
 70
0
  9
$DIMLTYPE
  6

  9
$DIMLTEX1
  6

  9
$DIMLTEX2
  6

  9
$DIMTXTDIRECTION
 70
0
  9
$LUNITS
 70
2
  9
$LUPREC
 70
4
  9
$SKETCHINC
 40
1.0
  9
$FILLETRAD
 40
10.0
  9
$AUNITS
 70
0
  9
$AUPREC
 70
2
  9
$MENU
  1
.
  9
$ELEVATION
 40
0.0
  9
$PELEVATION
 40
0.0
  9
$THICKNESS
 40
0.0
  9
$LIMCHECK
 70
0
  9
$CHAMFERA
 40
0.0
  9
$CHAMFERB
 40
0.0
  9
$CHAMFERC
 40
0.0
  9
$CHAMFERD
 40
0.0
  9
$SKPOLY
 70
0
  9
$TDCREATE
 40
2461245.681273148
  9
$TDUCREATE
 40
2458532.153996898
  9
$TDUPDATE
 40
2461245.6812847224
  9
$TDUUPDATE
 40
2458532.1544311
  9
$TDINDWG
 40
0.0
  9
$TDUSRTIMER
 40
0.0
  9
$USRTIMER
 70
1
  9
$ANGBASE
 50
0.0
  9
$ANGDIR
 70
0
  9
$PDMODE
 70
0
  9
$PDSIZE
 40
0.0
  9
$PLINEWID
 40
0.0
  9
$SPLFRAME
 70
0
  9
$SPLINETYPE
 70
6
  9
$SPLINESEGS
 70
8
  9
$HANDSEED
  5
53
  9
$SURFTAB1
 70
6
  9
$SURFTAB2
 70
6
  9
$SURFTYPE
 70
6
  9
$SURFU
 70
6
  9
$SURFV
 70
6
  9
$UCSBASE
  2

  9
$UCSNAME
  2

  9
$UCSORG
 10
0.0
 20
0.0
 30
0.0
  9
$UCSXDIR
 10
1.0
 20
0.0
 30
0.0
  9
$UCSYDIR
 10
0.0
 20
1.0
 30
0.0
  9
$UCSORTHOREF
  2

  9
$UCSORTHOVIEW
 70
0
  9
$UCSORGTOP
 10
0.0
 20
0.0
 30
0.0
  9
$UCSORGBOTTOM
 10
0.0
 20
0.0
 30
0.0
  9
$UCSORGLEFT
 10
0.0
 20
0.0
 30
0.0
  9
$UCSORGRIGHT
 10
0.0
 20
0.0
 30
0.0
  9
$UCSORGFRONT
 10
0.0
 20
0.0
 30
0.0
  9
$UCSORGBACK
 10
0.0
 20
0.0
 30
0.0
  9
$PUCSBASE
  2

  9
$PUCSNAME
  2

  9
$PUCSORG
 10
0.0
 20
0.0
 30
0.0
  9
$PUCSXDIR
 10
1.0
 20
0.0
 30
0.0
  9
$PUCSYDIR
 10
0.0
 20
1.0
 30
0.0
  9
$PUCSORTHOREF
  2

  9
$PUCSORTHOVIEW
 70
0
  9
$PUCSORGTOP
 10
0.0
 20
0.0
 30
0.0
  9
$PUCSORGBOTTOM
 10
0.0
 20
0.0
 30
0.0
  9
$PUCSORGLEFT
 10
0.0
 20
0.0
 30
0.0
  9
$PUCSORGRIGHT
 10
0.0
 20
0.0
 30
0.0
  9
$PUCSORGFRONT
 10
0.0
 20
0.0
 30
0.0
  9
$PUCSORGBACK
 10
0.0
 20
0.0
 30
0.0
  9
$USERI1
 70
0
  9
$USERI2
 70
0
  9
$USERI3
 70
0
  9
$USERI4
 70
0
  9
$USERI5
 70
0
  9
$USERR1
 40
0.0
  9
$USERR2
 40
0.0
  9
$USERR3
 40
0.0
  9
$USERR4
 40
0.0
  9
$USERR5
 40
0.0
  9
$WORLDVIEW
 70
1
  9
$SHADEDGE
 70
3
  9
$SHADEDIF
 70
70
  9
$TILEMODE
 70
1
  9
$MAXACTVP
 70
64
  9
$PINSBASE
 10
0.0
 20
0.0
 30
0.0
  9
$PLIMCHECK
 70
0
  9
$PEXTMIN
 10
1e+20
 20
1e+20
 30
1e+20
  9
$PEXTMAX
 10
-1e+20
 20
-1e+20
 30
-1e+20
  9
$PLIMMIN
 10
0.0
 20
0.0
  9
$PLIMMAX
 10
420.0
 20
297.0
  9
$UNITMODE
 70
0
  9
$VISRETAIN
 70
1
  9
$PLINEGEN
 70
0
  9
$PSLTSCALE
 70
1
  9
$TREEDEPTH
 70
3020
  9
$CMLSTYLE
  2
Standard
  9
$CMLJUST
 70
0
  9
$CMLSCALE
 40
20.0
  9
$PROXYGRAPHICS
 70
1
  9
$MEASUREMENT
 70
1
  9
$CELWEIGHT
370
-1
  9
$ENDCAPS
280
0
  9
$JOINSTYLE
280
0
  9
$LWDISPLAY
290
0
  9
$INSUNITS
 70
6
  9
$HYPERLINKBASE
  1

  9
$STYLESHEET
  1

  9
$XEDIT
290
1
  9
$CEPSNTYPE
380
0
  9
$PSTYLEMODE
290
1
  9
$FINGERPRINTGUID
  2
{121936B4-EA9D-43CB-B468-EDA897880F07}
  9
$VERSIONGUID
  2
{D8D6F80E-E8D4-4D7A-8F95-D7DEE7A90E4C}
  9
$EXTNAMES
290
1
  9
$PSVPSCALE
 40
0.0
  9
$OLESTARTUP
290
0
  9
$SORTENTS
280
127
  9
$INDEXCTL
280
0
  9
$HIDETEXT
280
1
  9
$XCLIPFRAME
280
1
  9
$HALOGAP
280
0
  9
$OBSCOLOR
 70
257
  9
$OBSLTYPE
280
0
  9
$INTERSECTIONDISPLAY
280
0
  9
$INTERSECTIONCOLOR
 70
257
  9
$DIMASSOC
280
2
  9
$PROJECTNAME
  1

  9
$CAMERADISPLAY
290
0
  9
$LENSLENGTH
 40
50.0
  9
$CAMERAHEIGHT
 40
0.0
  9
$STEPSPERSEC
 40
24.0
  9
$STEPSIZE
 40
100.0
  9
$3DDWFPREC
 40
2.0
  9
$PSOLWIDTH
 40
0.005
  9
$PSOLHEIGHT
 40
0.08
  9
$LOFTANG1
 40
1.570796326795
  9
$LOFTANG2
 40
1.570796326795
  9
$LOFTMAG1
 40
0.0
  9
$LOFTMAG2
 40
0.0
  9
$LOFTPARAM
 70
7
  9
$LOFTNORMALS
280
1
  9
$LATITUDE
 40
37.795
  9
$LONGITUDE
 40
-122.394
  9
$NORTHDIRECTION
 40
0.0
  9
$TIMEZONE
 70
-8000
  9
$LIGHTGLYPHDISPLAY
280
1
  9
$TILEMODELIGHTSYNCH
280
1
  9
$CMATERIAL
347
20
  9
$SOLIDHIST
280
0
  9
$SHOWHIST
280
1
  9
$DWFFRAME
280
2
  9
$DGNFRAME
280
2
  9
$REALWORLDSCALE
290
1
  9
$INTERFERECOLOR
 62
256
  9
$CSHADOW
280
0
  9
$SHADOWPLANELOCATION
 40
0.0
  0
ENDSEC
  0
SECTION
  2
CLASSES
  0
CLASS
  1
ACDBDICTIONARYWDFLT
  2
AcDbDictionaryWithDefault
  3
ObjectDBX Classes
 90
0
 91
0
280
0
281
0
  0
CLASS
  1
SUN
  2
AcDbSun
  3
SCENEOE
 90
1153
 91
0
280
0
281
0
  0
CLASS
  1
VISUALSTYLE
  2
AcDbVisualStyle
  3
ObjectDBX Classes
 90
4095
 91
0
280
0
281
0
  0
CLASS
  1
MATERIAL
  2
AcDbMaterial
  3
ObjectDBX Classes
 90
1153
 91
0
280
0
281
0
  0
CLASS
  1
SCALE
  2
AcDbScale
  3
ObjectDBX Classes
 90
1153
 91
0
280
0
281
0
  0
CLASS
  1
TABLESTYLE
  2
AcDbTableStyle
  3
ObjectDBX Classes
 90
4095
 91
0
280
0
281
0
  0
CLASS
  1
MLEADERSTYLE
  2
AcDbMLeaderStyle
  3
ACDB_MLEADERSTYLE_CLASS
 90
4095
 91
0
280
0
281
0
  0
CLASS
  1
DICTIONARYVAR
  2
AcDbDictionaryVar
  3
ObjectDBX Classes
 90
0
 91
0
280
0
281
0
  0
CLASS
  1
CELLSTYLEMAP
  2
AcDbCellStyleMap
  3
ObjectDBX Classes
 90
1152
 91
0
280
0
281
0
  0
CLASS
  1
MENTALRAYRENDERSETTINGS
  2
AcDbMentalRayRenderSettings
  3
SCENEOE
 90
1024
 91
0
280
0
281
0
  0
CLASS
  1
ACDBDETAILVIEWSTYLE
  2
AcDbDetailViewStyle
  3
ObjectDBX Classes
 90
1025
 91
0
280
0
281
0
  0
CLASS
  1
ACDBSECTIONVIEWSTYLE
  2
AcDbSectionViewStyle
  3
ObjectDBX Classes
 90
1025
 91
0
280
0
281
0
  0
CLASS
  1
RASTERVARIABLES
  2
AcDbRasterVariables
  3
ISM
 90
0
 91
0
280
0
281
0
  0
CLASS
  1
LAYOUT
  2
AcDbLayout
  3
ObjectDBX Classes
 90
0
 91
0
280
0
281
0
  0
CLASS
  1
ACDBPLACEHOLDER
  2
AcDbPlaceHolder
  3
ObjectDBX Classes
 90
0
 91
0
280
0
281
0
  0
ENDSEC
  0
SECTION
  2
TABLES
  0
TABLE
  2
VPORT
  5
8
330
0
100
AcDbSymbolTable
 70
1
  0
VPORT
  5
23
330
8
100
AcDbSymbolTableRecord
100
AcDbViewportTableRecord
  2
*Active
 70
0
 10
0.0
 20
0.0
 11
1.0
 21
1.0
 12
0.0
 22
0.0
 13
0.0
 23
0.0
 14
0.5
 24
0.5
 15
0.5
 25
0.5
 16
0.0
 26
0.0
 36
1.0
 17
0.0
 27
0.0
 37
0.0
 40
1000.0
 41
1.34
 42
50.0
 43
0.0
 44
0.0
 50
0.0
 51
0.0
 71
0
 72
1000
 73
1
 74
3
 75
0
 76
0
 77
0
 78
0
281
0
 65
0
146
0.0
  0
ENDTAB
  0
TABLE
  2
LTYPE
  5
2
330
0
100
AcDbSymbolTable
 70
3
  0
LTYPE
  5
24
330
2
100
AcDbSymbolTableRecord
100
AcDbLinetypeTableRecord
  2
ByBlock
 70
0
  3

 72
65
 73
0
 40
0.0
  0
LTYPE
  5
25
330
2
100
AcDbSymbolTableRecord
100
AcDbLinetypeTableRecord
  2
ByLayer
 70
0
  3

 72
65
 73
0
 40
0.0
  0
LTYPE
  5
26
330
2
100
AcDbSymbolTableRecord
100
AcDbLinetypeTableRecord
  2
Continuous
 70
0
  3

 72
65
 73
0
 40
0.0
  0
ENDTAB
  0
TABLE
  2
LAYER
  5
1
330
0
100
AcDbSymbolTable
 70
10
  0
LAYER
  5
27
330
1
100
AcDbSymbolTableRecord
100
AcDbLayerTableRecord
  2
0
 70
0
 62
7
  6
Continuous
370
-3
390
13
347
21
  0
LAYER
  5
28
330
1
100
AcDbSymbolTableRecord
100
AcDbLayerTableRecord
  2
Defpoints
 70
0
 62
7
  6
Continuous
290
0
370
-3
390
13
347
21
  0
LAYER
  5
2F
330
1
100
AcDbSymbolTableRecord
100
AcDbLayerTableRecord
  2
OUTLINE
 70
0
 62
7
  6
Continuous
370
-3
390
13
347
21
  0
LAYER
  5
30
330
1
100
AcDbSymbolTableRecord
100
AcDbLayerTableRecord
  2
POCKETS
 70
0
 62
5
  6
Continuous
370
-3
390
13
347
21
  0
LAYER
  5
31
330
1
100
AcDbSymbolTableRecord
100
AcDbLayerTableRecord
  2
CUTOUTS
 70
0
 62
1
  6
Continuous
370
-3
390
13
347
21
  0
LAYER
  5
32
330
1
100
AcDbSymbolTableRecord
100
AcDbLayerTableRecord
  2
SCREW_HOLES
 70
0
 62
3
  6
Continuous
370
-3
390
13
347
21
  0
LAYER
  5
33
330
1
100
AcDbSymbolTableRecord
100
AcDbLayerTableRecord
  2
LED
 70
0
 62
30
  6
Continuous
370
-3
390
13
347
21
  0
LAYER
  5
34
330
1
100
AcDbSymbolTableRecord
100
AcDbLayerTableRecord
  2
TEXT_ENGRAVE
 70
0
 62
6
  6
Continuous
370
-3
390
13
347
21
  0
LAYER
  5
35
330
1
100
AcDbSymbolTableRecord
100
AcDbLayerTableRecord
  2
CENTERLINES
 70
0
 62
8
  6
Continuous
370
-3
390
13
347
21
  0
LAYER
  5
36
330
1
100
AcDbSymbolTableRecord
100
AcDbLayerTableRecord
  2
DIMENSIONS
 70
0
 62
4
  6
Continuous
370
-3
390
13
347
21
  0
ENDTAB
  0
TABLE
  2
STYLE
  5
5
330
0
100
AcDbSymbolTable
 70
1
  0
STYLE
  5
29
330
5
100
AcDbSymbolTableRecord
100
AcDbTextStyleTableRecord
  2
Standard
 70
0
 40
0.0
 41
1.0
 50
0.0
 71
0
 42
2.5
  3
txt
  4

  0
ENDTAB
  0
TABLE
  2
VIEW
  5
7
330
0
100
AcDbSymbolTable
 70
0
  0
ENDTAB
  0
TABLE
  2
UCS
  5
6
330
0
100
AcDbSymbolTable
 70
0
  0
ENDTAB
  0
TABLE
  2
APPID
  5
3
330
0
100
AcDbSymbolTable
 70
3
  0
APPID
  5
2A
330
3
100
AcDbSymbolTableRecord
100
AcDbRegAppTableRecord
  2
ACAD
 70
0
  0
APPID
  5
50
330
3
100
AcDbSymbolTableRecord
100
AcDbRegAppTableRecord
  2
HATCHBACKGROUNDCOLOR
 70
0
  0
APPID
  5
51
330
3
100
AcDbSymbolTableRecord
100
AcDbRegAppTableRecord
  2
EZDXF
 70
0
  0
ENDTAB
  0
TABLE
  2
DIMSTYLE
  5
4
330
0
100
AcDbSymbolTable
 70
1
100
AcDbDimStyleTable
  0
DIMSTYLE
105
2B
330
4
100
AcDbSymbolTableRecord
100
AcDbDimStyleTableRecord
  2
Standard
 70
0
 40
1.0
 41
2.5
 42
0.625
 43
3.75
 44
1.25
 45
0.0
 46
0.0
 47
0.0
 48
0.0
 49
2.5
140
2.5
141
2.5
142
0.0
143
0.03937007874
144
1.0
145
0.0
146
1.0
147
0.625
148
0.0
 69
0
 70
0
 71
0
 72
0
 73
0
 74
0
 75
0
 76
0
 77
1
 78
8
 79
3
170
0
171
3
172
1
173
0
174
0
175
0
176
0
177
0
178
0
179
2
271
2
272
2
273
2
274
3
275
0
276
0
277
2
278
44
279
0
280
0
281
0
282
0
283
0
284
8
285
0
286
0
288
0
289
3
290
0
371
-2
372
-2
  0
ENDTAB
  0
TABLE
  2
BLOCK_RECORD
  5
9
330
0
100
AcDbSymbolTable
 70
2
  0
BLOCK_RECORD
  5
17
330
9
100
AcDbSymbolTableRecord
100
AcDbBlockTableRecord
  2
*Model_Space
340
1A
 70
0
280
1
281
0
  0
BLOCK_RECORD
  5
1B
330
9
100
AcDbSymbolTableRecord
100
AcDbBlockTableRecord
  2
*Paper_Space
340
1E
 70
0
280
1
281
0
  0
ENDTAB
  0
ENDSEC
  0
SECTION
  2
BLOCKS
  0
BLOCK
  5
18
330
17
100
AcDbEntity
  8
0
100
AcDbBlockBegin
  2
*Model_Space
 70
0
 10
0.0
 20
0.0
 30
0.0
  3
*Model_Space
  1

  0
ENDBLK
  5
19
330
17
100
AcDbEntity
  8
0
100
AcDbBlockEnd
  0
BLOCK
  5
1C
330
1B
100
AcDbEntity
  8
0
100
AcDbBlockBegin
  2
*Paper_Space
 70
0
 10
0.0
 20
0.0
 30
0.0
  3
*Paper_Space
  1

  0
ENDBLK
  5
1D
330
1B
100
AcDbEntity
  8
0
100
AcDbBlockEnd
  0
ENDSEC
  0
SECTION
  2
ENTITIES
  0
LWPOLYLINE
  5
37
330
17
100
AcDbEntity
  8
OUTLINE
100
AcDbPolyline
 90
41
 70
0
 10
-55.95006238305611
 20
19.00124766112216
 10
-55.4014749067009
 20
15.244720931558849
 10
-54.15293067000972
 20
11.659532152963967
 10
-52.24941609925308
 20
8.374859632292448
 10
-49.759516924416104
 20
5.5090537441898455
 10
-46.7729469596818
 20
3.1653726364270156
 10
-43.39731561573178
 20
1.4282617249191922
 10
-39.75425061396215
 20
0.36031103222843797
 10
-35.97501560549921
 20
3.552713678800501e-15
 10
0.0
 20
1.7763568394002505e-15
 10
35.97501560549921
 20
0.0
 10
39.75425061396215
 20
0.3603110322284344
 10
43.397315615731785
 20
1.4282617249191887
 10
46.7729469596818
 20
3.165372636427012
 10
49.759516924416104
 20
5.50905374418984
 10
52.24941609925308
 20
8.374859632292445
 10
54.15293067000972
 20
11.659532152963958
 10
55.40147490670089
 20
15.24472093155884
 10
55.95006238305611
 20
19.00124766112215
 10
62.45006238305611
 20
149.00124766112214
 10
68.9500623830561
 20
279.00124766112214
 10
68.74249025880789
 20
283.0408791213724
 10
67.72634398835524
 20
286.95612563704094
 10
65.94318829442881
 20
290.5868369024305
 10
63.465961861309374
 20
293.7845013189169
 10
60.39599383109752
 20
296.41832075367057
 10
56.85885900899418
 20
298.3805607419678
 10
52.99924131739979
 20
299.5909572869648
 10
48.97501560549921
 20
300.0
 10
0.0
 20
300.0
 10
-48.97501560549921
 20
300.0
 10
-52.999241317399786
 20
299.5909572869648
 10
-56.85885900899417
 20
298.3805607419678
 10
-60.39599383109752
 20
296.41832075367057
 10
-63.46596186130937
 20
293.7845013189169
 10
-65.94318829442881
 20
290.5868369024305
 10
-67.72634398835524
 20
286.95612563704094
 10
-68.74249025880789
 20
283.0408791213724
 10
-68.9500623830561
 20
279.00124766112214
 10
-62.45006238305611
 20
149.00124766112214
 10
-55.95006238305611
 20
19.00124766112216
  0
LWPOLYLINE
  5
38
330
17
100
AcDbEntity
  8
POCKETS
100
AcDbPolyline
 90
97
 70
0
 10
10.0
 20
42.5
 10
10.682424133646709
 20
42.52331230809461
 10
11.361666490962467
 20
42.59314053963669
 10
12.034560130526337
 20
42.709159123176775
 10
12.697967711570243
 20
42.870827126522
 10
13.34879612170986
 20
43.0773907788118
 10
13.984010898462415
 20
43.32788698494547
 10
14.600650377311524
 20
43.621147815976244
 10
15.195839500354339
 20
43.955805954535116
 10
15.76680322114867
 20
44.33030106989558
 10
16.310879443260525
 20
44.7428870929558
 10
16.825531432186544
 20
45.19164035721876
 10
17.30835964278124
 20
45.67446856781346
 10
17.757112907044196
 20
46.18912055673947
 10
18.169698930104417
 20
46.73319677885133
 10
18.544194045464884
 20
47.30416049964566
 10
18.878852184023756
 20
47.899349622688476
 10
19.172113015054535
 20
48.515989101537585
 10
19.422609221188203
 20
49.15120387829014
 10
19.629172873477998
 20
49.80203228842976
 10
19.790840876823225
 20
50.46543986947366
 10
19.906859460363307
 20
51.13833350903754
 10
19.97668769190539
 20
51.817575866353295
 10
20.0
 20
52.5
 10
20.0
 20
87.5
 10
19.97668769190539
 20
88.1824241336467
 10
19.906859460363307
 20
88.86166649096246
 10
19.790840876823225
 20
89.53456013052633
 10
19.62917287347799
 20
90.19796771157024
 10
19.422609221188203
 20
90.84879612170985
 10
19.172113015054535
 20
91.48401089846242
 10
18.878852184023756
 20
92.10065037731152
 10
18.544194045464884
 20
92.69583950035434
 10
18.169698930104417
 20
93.26680322114868
 10
17.757112907044203
 20
93.81087944326053
 10
17.30835964278124
 20
94.32553143218654
 10
16.825531432186544
 20
94.80835964278124
 10
16.310879443260532
 20
95.2571129070442
 10
15.76680322114867
 20
95.66969893010442
 10
15.195839500354339
 20
96.04419404546488
 10
14.600650377311524
 20
96.37885218402376
 10
13.984010898462415
 20
96.67211301505452
 10
13.34879612170986
 20
96.9226092211882
 10
12.697967711570243
 20
97.129172873478
 10
12.034560130526337
 20
97.29084087682322
 10
11.361666490962467
 20
97.40685946036331
 10
10.682424133646709
 20
97.4766876919054
 10
10.0
 20
97.5
 10
-50.0
 20
97.5
 10
-50.682424133646705
 20
97.4766876919054
 10
-51.36166649096246
 20
97.40685946036331
 10
-52.03456013052634
 20
97.29084087682322
 10
-52.69796771157024
 20
97.129172873478
 10
-53.34879612170986
 20
96.9226092211882
 10
-53.984010898462415
 20
96.67211301505453
 10
-54.600650377311524
 20
96.37885218402376
 10
-55.19583950035433
 20
96.04419404546488
 10
-55.76680322114867
 20
95.66969893010442
 10
-56.31087944326053
 20
95.2571129070442
 10
-56.82553143218654
 20
94.80835964278124
 10
-57.30835964278124
 20
94.32553143218654
 10
-57.757112907044196
 20
93.81087944326053
 10
-58.16969893010442
 20
93.26680322114868
 10
-58.544194045464884
 20
92.69583950035434
 10
-58.878852184023756
 20
92.10065037731152
 10
-59.17211301505453
 20
91.48401089846242
 10
-59.4226092211882
 20
90.84879612170987
 10
-59.62917287347799
 20
90.19796771157024
 10
-59.790840876823225
 20
89.53456013052634
 10
-59.90685946036331
 20
88.86166649096248
 10
-59.97668769190539
 20
88.18242413364672
 10
-60.0
 20
87.5
 10
-60.0
 20
52.5
 10
-59.97668769190539
 20
51.817575866353295
 10
-59.90685946036331
 20
51.13833350903754
 10
-59.790840876823225
 20
50.46543986947366
 10
-59.629172873478
 20
49.80203228842976
 10
-59.4226092211882
 20
49.15120387829014
 10
-59.172113015054535
 20
48.515989101537585
 10
-58.878852184023756
 20
47.899349622688476
 10
-58.54419404546489
 20
47.30416049964567
 10
-58.16969893010442
 20
46.73319677885133
 10
-57.757112907044196
 20
46.18912055673947
 10
-57.30835964278124
 20
45.67446856781346
 10
-56.825531432186544
 20
45.19164035721876
 10
-56.31087944326053
 20
44.742887092955804
 10
-55.76680322114867
 20
44.33030106989558
 10
-55.19583950035434
 20
43.955805954535116
 10
-54.600650377311524
 20
43.62114781597625
 10
-53.984010898462415
 20
43.32788698494547
 10
-53.34879612170987
 20
43.0773907788118
 10
-52.69796771157024
 20
42.87082712652201
 10
-52.03456013052634
 20
42.709159123176775
 10
-51.36166649096247
 20
42.59314053963669
 10
-50.68242413364671
 20
42.52331230809461
 10
-50.0
 20
42.5
 10
10.0
 20
42.5
  0
LWPOLYLINE
  5
39
330
17
100
AcDbEntity
  8
POCKETS
100
AcDbPolyline
 90
97
 70
0
 10
42.5
 20
42.5
 10
43.182424133646705
 20
42.52331230809461
 10
43.86166649096246
 20
42.59314053963669
 10
44.53456013052634
 20
42.709159123176775
 10
45.19796771157024
 20
42.870827126522
 10
45.84879612170987
 20
43.0773907788118
 10
46.484010898462415
 20
43.32788698494547
 10
47.100650377311524
 20
43.621147815976244
 10
47.69583950035434
 20
43.955805954535116
 10
48.26680322114867
 20
44.33030106989558
 10
48.81087944326053
 20
44.7428870929558
 10
49.32553143218654
 20
45.19164035721876
 10
49.80835964278124
 20
45.67446856781346
 10
50.2571129070442
 20
46.18912055673947
 10
50.66969893010442
 20
46.73319677885133
 10
51.044194045464884
 20
47.30416049964566
 10
51.378852184023756
 20
47.899349622688476
 10
51.672113015054535
 20
48.515989101537585
 10
51.9226092211882
 20
49.15120387829014
 10
52.129172873478
 20
49.80203228842976
 10
52.290840876823225
 20
50.46543986947366
 10
52.40685946036331
 20
51.13833350903754
 10
52.47668769190539
 20
51.817575866353295
 10
52.5
 20
52.5
 10
52.5
 20
87.5
 10
52.47668769190539
 20
88.1824241336467
 10
52.40685946036331
 20
88.86166649096246
 10
52.290840876823225
 20
89.53456013052633
 10
52.12917287347799
 20
90.19796771157024
 10
51.9226092211882
 20
90.84879612170985
 10
51.672113015054535
 20
91.48401089846242
 10
51.378852184023756
 20
92.10065037731152
 10
51.044194045464884
 20
92.69583950035434
 10
50.66969893010442
 20
93.26680322114868
 10
50.2571129070442
 20
93.81087944326053
 10
49.80835964278124
 20
94.32553143218654
 10
49.32553143218654
 20
94.80835964278124
 10
48.81087944326053
 20
95.2571129070442
 10
48.26680322114867
 20
95.66969893010442
 10
47.69583950035434
 20
96.04419404546488
 10
47.100650377311524
 20
96.37885218402376
 10
46.484010898462415
 20
96.67211301505452
 10
45.84879612170986
 20
96.9226092211882
 10
45.19796771157024
 20
97.129172873478
 10
44.534560130526344
 20
97.29084087682322
 10
43.86166649096246
 20
97.40685946036331
 10
43.182424133646705
 20
97.4766876919054
 10
42.5
 20
97.5
 10
-2.5
 20
97.5
 10
-3.182424133646709
 20
97.4766876919054
 10
-3.861666490962463
 20
97.40685946036331
 10
-4.534560130526337
 20
97.29084087682322
 10
-5.197967711570243
 20
97.129172873478
 10
-5.84879612170986
 20
96.9226092211882
 10
-6.484010898462415
 20
96.67211301505453
 10
-7.100650377311521
 20
96.37885218402376
 10
-7.695839500354332
 20
96.04419404546488
 10
-8.26680322114867
 20
95.66969893010442
 10
-8.810879443260529
 20
95.2571129070442
 10
-9.325531432186537
 20
94.80835964278124
 10
-9.808359642781241
 20
94.32553143218654
 10
-10.257112907044196
 20
93.81087944326053
 10
-10.66969893010442
 20
93.26680322114868
 10
-11.044194045464884
 20
92.69583950035434
 10
-11.378852184023753
 20
92.10065037731152
 10
-11.672113015054528
 20
91.48401089846242
 10
-11.922609221188203
 20
90.84879612170987
 10
-12.129172873477991
 20
90.19796771157024
 10
-12.290840876823225
 20
89.53456013052634
 10
-12.406859460363307
 20
88.86166649096248
 10
-12.47668769190539
 20
88.18242413364672
 10
-12.5
 20
87.5
 10
-12.5
 20
52.5
 10
-12.47668769190539
 20
51.817575866353295
 10
-12.406859460363307
 20
51.13833350903754
 10
-12.290840876823225
 20
50.46543986947366
 10
-12.129172873477998
 20
49.80203228842976
 10
-11.922609221188203
 20
49.15120387829014
 10
-11.672113015054531
 20
48.515989101537585
 10
-11.378852184023753
 20
47.899349622688476
 10
-11.044194045464888
 20
47.30416049964567
 10
-10.66969893010442
 20
46.73319677885133
 10
-10.257112907044199
 20
46.18912055673947
 10
-9.808359642781241
 20
45.67446856781346
 10
-9.32553143218654
 20
45.19164035721876
 10
-8.810879443260532
 20
44.742887092955804
 10
-8.26680322114867
 20
44.33030106989558
 10
-7.695839500354335
 20
43.955805954535116
 10
-7.100650377311528
 20
43.62114781597625
 10
-6.484010898462419
 20
43.32788698494547
 10
-5.848796121709864
 20
43.0773907788118
 10
-5.197967711570243
 20
42.87082712652201
 10
-4.534560130526337
 20
42.709159123176775
 10
-3.8616664909624703
 20
42.59314053963669
 10
-3.1824241336467125
 20
42.52331230809461
 10
-2.5000000000000036
 20
42.5
 10
42.5
 20
42.5
  0
CIRCLE
  5
3A
330
17
100
AcDbEntity
  8
CUTOUTS
100
AcDbCircle
 10
-22.0
 20
225.0
 30
0.0
 40
25.0
  0
LWPOLYLINE
  5
3B
330
17
100
AcDbEntity
  8
CUTOUTS
100
AcDbPolyline
 90
5
 70
0
 10
18.0
 20
288.0
 10
40.0
 20
288.0
 10
40.0
 20
300.0
 10
18.0
 20
300.0
 10
18.0
 20
288.0
  0
LWPOLYLINE
  5
3C
330
17
100
AcDbEntity
  8
CUTOUTS
100
AcDbPolyline
 90
5
 70
0
 10
-14.0
 20
295.5
 10
14.0
 20
295.5
 10
14.0
 20
301.5
 10
-14.0
 20
301.5
 10
-14.0
 20
295.5
  0
CIRCLE
  5
3D
330
17
100
AcDbEntity
  8
SCREW_HOLES
100
AcDbCircle
 10
-35.0
 20
150.0
 30
0.0
 40
1.6
  0
CIRCLE
  5
3E
330
17
100
AcDbEntity
  8
SCREW_HOLES
100
AcDbCircle
 10
30.0
 20
150.0
 30
0.0
 40
1.6
  0
LWPOLYLINE
  5
3F
330
17
100
AcDbEntity
  8
LED
  6
DASHED
100
AcDbPolyline
 90
5
 70
0
 10
-145.0
 20
-6.0
 10
145.0
 20
-6.0
 10
145.0
 20
2.0
 10
-145.0
 20
2.0
 10
-145.0
 20
-6.0
  0
TEXT
  5
40
330
17
100
AcDbEntity
  8
TEXT_ENGRAVE
100
AcDbText
 10
-28.0
 20
93.0
 30
0.0
 40
6.0
  1
PHONE
 11
-28.0
 21
93.0
 31
0.0
100
AcDbText
  0
TEXT
  5
41
330
17
100
AcDbEntity
  8
TEXT_ENGRAVE
100
AcDbText
 10
12.0
 20
93.0
 30
0.0
 40
6.0
  1
BUDS
 11
12.0
 21
93.0
 31
0.0
100
AcDbText
  0
TEXT
  5
42
330
17
100
AcDbEntity
  8
TEXT_ENGRAVE
100
AcDbText
 10
-38.0
 20
203.0
 30
0.0
 40
6.0
  1
WATCH
 11
-38.0
 21
203.0
 31
0.0
100
AcDbText
  0
TEXT
  5
43
330
17
100
AcDbEntity
  8
TEXT_ENGRAVE
100
AcDbText
 10
10.0
 20
260.0
 30
0.0
 40
6.0
  1
LAPTOP
 11
10.0
 21
260.0
 31
0.0
100
AcDbText
  0
TEXT
  5
44
330
17
100
AcDbEntity
  8
TEXT_ENGRAVE
100
AcDbText
 10
-18.0
 20
278.0
 30
0.0
 40
8.0
  1
Quad-Dock
 11
-18.0
 21
278.0
 31
0.0
100
AcDbText
  0
LINE
  5
45
330
17
100
AcDbEntity
  8
CENTERLINES
100
AcDbLine
 10
-80.0
 20
0.0
 30
0.0
 11
-80.0
 21
300.0
 31
0.0
  0
LINE
  5
46
330
17
100
AcDbEntity
  8
CENTERLINES
100
AcDbLine
 10
0.0
 20
-15.0
 30
0.0
 11
0.0
 21
315.0
 31
0.0
  0
TEXT
  5
47
330
17
100
AcDbEntity
  8
DIMENSIONS
100
AcDbText
 10
-5.0
 20
308.0
 30
0.0
 40
4.0
  1
300.00
 11
-5.0
 21
308.0
 31
0.0
100
AcDbText
  0
TEXT
  5
48
330
17
100
AcDbEntity
  8
DIMENSIONS
100
AcDbText
 10
-65.0
 20
-12.0
 30
0.0
 40
4.0
  1
110.00 front / 140.00 rear
 11
-65.0
 21
-12.0
 31
0.0
100
AcDbText
  0
TEXT
  5
49
330
17
100
AcDbEntity
  8
DIMENSIONS
100
AcDbText
 10
-75.0
 20
316.0
 30
0.0
 40
3.5
  1
Zone1 @(-20,70), Zone2 @(+20,70), Zone3 @(-22,225), Zone4 @(+29,294)
 11
-75.0
 21
316.0
 31
0.0
100
AcDbText
  0
TEXT
  5
4A
330
17
100
AcDbEntity
  8
DIMENSIONS
100
AcDbText
 10
180.0
 20
-40.0
 30
0.0
 40
4.0
  1
QUAD-DOCK TOP PLATE
 11
180.0
 21
-40.0
 31
0.0
100
AcDbText
  0
TEXT
  5
4B
330
17
100
AcDbEntity
  8
DIMENSIONS
100
AcDbText
 10
180.0
 20
-46.0
 30
0.0
 40
4.0
  1
Material: 1.5mm 6061-T6 Aluminium
 11
180.0
 21
-46.0
 31
0.0
100
AcDbText
  0
TEXT
  5
4C
330
17
100
AcDbEntity
  8
DIMENSIONS
100
AcDbText
 10
180.0
 20
-52.0
 30
0.0
 40
4.0
  1
Finish: Gunmetal anodized, brushed
 11
180.0
 21
-52.0
 31
0.0
100
AcDbText
  0
TEXT
  5
4D
330
17
100
AcDbEntity
  8
DIMENSIONS
100
AcDbText
 10
180.0
 20
-58.0
 30
0.0
 40
4.0
  1
All dimensions in mm | Tolerance ±0.10mm
 11
180.0
 21
-58.0
 31
0.0
100
AcDbText
  0
TEXT
  5
4E
330
17
100
AcDbEntity
  8
DIMENSIONS
100
AcDbText
 10
180.0
 20
-64.0
 30
0.0
 40
4.0
  1
Scale: 1:1 | Units: mm
 11
180.0
 21
-64.0
 31
0.0
100
AcDbText
  0
TEXT
  5
4F
330
17
100
AcDbEntity
  8
DIMENSIONS
100
AcDbText
 10
180.0
 20
-70.0
 30
0.0
 40
4.0
  1
Rev: 1.0 | Date: 2026-07-22
 11
180.0
 21
-70.0
 31
0.0
100
AcDbText
  0
ENDSEC
  0
SECTION
  2
OBJECTS
  0
DICTIONARY
  5
A
330
0
100
AcDbDictionary
281
1
  3
ACAD_COLOR
350
B
  3
ACAD_GROUP
350
C
  3
ACAD_LAYOUT
350
D
  3
ACAD_MATERIAL
350
E
  3
ACAD_MLEADERSTYLE
350
F
  3
ACAD_MLINESTYLE
350
10
  3
ACAD_PLOTSETTINGS
350
11
  3
ACAD_PLOTSTYLENAME
350
12
  3
ACAD_SCALELIST
350
14
  3
ACAD_TABLESTYLE
350
15
  3
ACAD_VISUALSTYLE
350
16
  3
EZDXF_META
350
2D
  0
DICTIONARY
  5
B
330
A
100
AcDbDictionary
281
1
  0
DICTIONARY
  5
C
330
A
100
AcDbDictionary
281
1
  0
DICTIONARY
  5
D
330
A
100
AcDbDictionary
281
1
  3
Model
350
1A
  3
Layout1
350
1E
  0
DICTIONARY
  5
E
330
A
100
AcDbDictionary
281
1
  3
ByBlock
350
1F
  3
ByLayer
350
20
  3
Global
350
21
  0
DICTIONARY
  5
F
330
A
100
AcDbDictionary
281
1
  3
Standard
350
2C
  0
DICTIONARY
  5
10
330
A
100
AcDbDictionary
281
1
  3
Standard
350
22
  0
DICTIONARY
  5
11
330
A
100
AcDbDictionary
281
1
  0
ACDBDICTIONARYWDFLT
  5
12
330
A
100
AcDbDictionary
281
1
  3
Normal
350
13
100
AcDbDictionaryWithDefault
340
13
  0
ACDBPLACEHOLDER
  5
13
330
12
  0
DICTIONARY
  5
14
330
A
100
AcDbDictionary
281
1
  0
DICTIONARY
  5
15
330
A
100
AcDbDictionary
281
1
  0
DICTIONARY
  5
16
330
A
100
AcDbDictionary
281
1
  0
LAYOUT
  5
1A
330
D
100
AcDbPlotSettings
  1

  4
A3
  6

 40
7.5
 41
20.0
 42
7.5
 43
20.0
 44
420.0
 45
297.0
 46
0.0
 47
0.0
 48
0.0
 49
0.0
140
0.0
141
0.0
142
1.0
143
1.0
 70
1024
 72
1
 73
0
 74
5
  7

 75
16
 76
0
 77
2
 78
300
147
1.0
148
0.0
149
0.0
100
AcDbLayout
  1
Model
 70
1
 71
0
 10
0.0
 20
0.0
 11
420.0
 21
297.0
 12
0.0
 22
0.0
 32
0.0
 14
1e+20
 24
1e+20
 34
1e+20
 15
-1e+20
 25
-1e+20
 35
-1e+20
146
0.0
 13
0.0
 23
0.0
 33
0.0
 16
1.0
 26
0.0
 36
0.0
 17
0.0
 27
1.0
 37
0.0
 76
1
330
17
  0
LAYOUT
  5
1E
330
D
100
AcDbPlotSettings
  1

  4
A3
  6

 40
7.5
 41
20.0
 42
7.5
 43
20.0
 44
420.0
 45
297.0
 46
0.0
 47
0.0
 48
0.0
 49
0.0
140
0.0
141
0.0
142
1.0
143
1.0
 70
0
 72
1
 73
0
 74
5
  7

 75
16
 76
0
 77
2
 78
300
147
1.0
148
0.0
149
0.0
100
AcDbLayout
  1
Layout1
 70
1
 71
1
 10
0.0
 20
0.0
 11
420.0
 21
297.0
 12
0.0
 22
0.0
 32
0.0
 14
1e+20
 24
1e+20
 34
1e+20
 15
-1e+20
 25
-1e+20
 35
-1e+20
146
0.0
 13
0.0
 23
0.0
 33
0.0
 16
1.0
 26
0.0
 36
0.0
 17
0.0
 27
1.0
 37
0.0
 76
1
330
1B
  0
MATERIAL
  5
1F
102
{ACAD_REACTORS
330
E
102
}
330
E
100
AcDbMaterial
  1
ByBlock
  2

 70
0
 40
1.0
 71
1
 41
1.0
 91
-1023410177
 42
1.0
 72
1
  3

 73
1
 74
1
 75
1
 44
0.5
 73
0
 45
1.0
 46
1.0
 77
1
  4

 78
1
 79
1
170
1
 48
1.0
171
1
  6

172
1
173
1
174
1
140
1.0
141
1.0
175
1
  7

176
1
177
1
178
1
143
1.0
179
1
  8

270
1
271
1
272
1
145
1.0
146
1.0
273
1
  9

274
1
275
1
276
1
 42
1.0
 72
1
  3

 73
1
 74
1
 75
1
 94
63
  0
MATERIAL
  5
20
102
{ACAD_REACTORS
330
E
102
}
330
E
100
AcDbMaterial
  1
ByLayer
  2

 70
0
 40
1.0
 71
1
 41
1.0
 91
-1023410177
 42
1.0
 72
1
  3

 73
1
 74
1
 75
1
 44
0.5
 73
0
 45
1.0
 46
1.0
 77
1
  4

 78
1
 79
1
170
1
 48
1.0
171
1
  6

172
1
173
1
174
1
140
1.0
141
1.0
175
1
  7

176
1
177
1
178
1
143
1.0
179
1
  8

270
1
271
1
272
1
145
1.0
146
1.0
273
1
  9

274
1
275
1
276
1
 42
1.0
 72
1
  3

 73
1
 74
1
 75
1
 94
63
  0
MATERIAL
  5
21
102
{ACAD_REACTORS
330
E
102
}
330
E
100
AcDbMaterial
  1
Global
  2

 70
0
 40
1.0
 71
1
 41
1.0
 91
-1023410177
 42
1.0
 72
1
  3

 73
1
 74
1
 75
1
 44
0.5
 73
0
 45
1.0
 46
1.0
 77
1
  4

 78
1
 79
1
170
1
 48
1.0
171
1
  6

172
1
173
1
174
1
140
1.0
141
1.0
175
1
  7

176
1
177
1
178
1
143
1.0
179
1
  8

270
1
271
1
272
1
145
1.0
146
1.0
273
1
  9

274
1
275
1
276
1
 42
1.0
 72
1
  3

 73
1
 74
1
 75
1
 94
63
  0
MLINESTYLE
  5
22
102
{ACAD_REACTORS
330
10
102
}
330
10
100
AcDbMlineStyle
  2
Standard
 70
0
  3

 62
256
 51
90.0
 52
90.0
 71
2
 49
0.5
 62
256
  6
BYLAYER
 49
-0.5
 62
256
  6
BYLAYER
  0
MLEADERSTYLE
  5
2C
102
{ACAD_REACTORS
330
F
102
}
330
F
100
AcDbMLeaderStyle
179
2
170
2
171
1
172
0
 90
2
 40
0.0
 41
0.0
173
1
 91
-1056964608
 92
-2
290
1
 42
2.0
291
1
 43
8.0
  3
Standard
 44
4.0
300

342
29
174
1
175
1
176
0
178
1
 93
-1056964608
 45
4.0
292
0
297
0
 46
4.0
 94
-1056964608
 47
1.0
 49
1.0
140
1.0
294
1
141
0.0
177
0
142
1.0
295
0
296
0
143
3.75
271
0
272
9
273
9
  0
DICTIONARY
  5
2D
330
A
100
AcDbDictionary
280
1
281
1
  3
CREATED_BY_EZDXF
350
2E
  3
WRITTEN_BY_EZDXF
350
52
  0
DICTIONARYVAR
  5
2E
330
2D
100
DictionaryVariables
280
0
  1
1.4.4 @ 2026-07-23T16:21:02.999297+00:00
  0
DICTIONARYVAR
  5
52
330
2D
100
DictionaryVariables
280
0
  1
1.4.4 @ 2026-07-23T16:21:03.002295+00:00
  0
ENDSEC
  0
EOF
