0
SECTION
2
HEADER
9
$ACADVER
1
AC1009
0
ENDSEC
0
SECTION
2
ENTITIES
0
LINE
8
base_plate
62
8
10
0.000
20
0.000
30
0.0
11
165.000
21
0.000
31
0.0
0
LINE
8
base_plate
62
8
10
165.000
20
0.000
30
0.0
11
165.000
21
100.000
31
0.0
0
LINE
8
base_plate
62
8
10
165.000
20
100.000
30
0.0
11
0.000
21
100.000
31
0.0
0
LINE
8
base_plate
62
8
10
0.000
20
100.000
30
0.0
11
0.000
21
0.000
31
0.0
0
TEXT
8
base_plate
62
8
10
67.500
20
50.000
30
0.0
40
3.0
1
BASE_PLATE
0
LINE
8
riser
62
8
10
0.000
20
0.000
30
0.0
11
165.000
21
0.000
31
0.0
0
LINE
8
riser
62
8
10
165.000
20
0.000
30
0.0
11
165.000
21
100.000
31
0.0
0
LINE
8
riser
62
8
10
165.000
20
100.000
30
0.0
11
0.000
21
100.000
31
0.0
0
LINE
8
riser
62
8
10
0.000
20
100.000
30
0.0
11
0.000
21
0.000
31
0.0
0
TEXT
8
riser
62
8
10
67.500
20
50.000
30
0.0
40
3.0
1
RISER
0
LINE
8
step1
62
7
10
0.000
20
0.000
30
0.0
11
165.000
21
0.000
31
0.0
0
LINE
8
step1
62
7
10
165.000
20
0.000
30
0.0
11
165.000
21
100.000
31
0.0
0
LINE
8
step1
62
7
10
165.000
20
100.000
30
0.0
11
0.000
21
100.000
31
0.0
0
LINE
8
step1
62
7
10
0.000
20
100.000
30
0.0
11
0.000
21
0.000
31
0.0
0
TEXT
8
step1
62
7
10
67.500
20
50.000
30
0.0
40
3.0
1
STEP1
0
LINE
8
step2
62
5
10
17.500
20
0.000
30
0.0
11
147.500
21
0.000
31
0.0
0
LINE
8
step2
62
5
10
147.500
20
0.000
30
0.0
11
147.500
21
100.000
31
0.0
0
LINE
8
step2
62
5
10
147.500
20
100.000
30
0.0
11
17.500
21
100.000
31
0.0
0
LINE
8
step2
62
5
10
17.500
20
100.000
30
0.0
11
17.500
21
0.000
31
0.0
0
TEXT
8
step2
62
5
10
67.500
20
50.000
30
0.0
40
3.0
1
STEP2
0
LINE
8
step3
62
3
10
35.000
20
20.000
30
0.0
11
130.000
21
20.000
31
0.0
0
LINE
8
step3
62
3
10
130.000
20
20.000
30
0.0
11
130.000
21
100.000
31
0.0
0
LINE
8
step3
62
3
10
130.000
20
100.000
30
0.0
11
35.000
21
100.000
31
0.0
0
LINE
8
step3
62
3
10
35.000
20
100.000
30
0.0
11
35.000
21
20.000
31
0.0
0
TEXT
8
step3
62
3
10
67.500
20
60.000
30
0.0
40
3.0
1
STEP3
0
LINE
8
zones
62
1
10
45.000
20
5.000
30
0.0
11
120.000
21
5.000
31
0.0
0
LINE
8
zones
62
1
10
120.000
20
5.000
30
0.0
11
120.000
21
95.000
31
0.0
0
LINE
8
zones
62
1
10
120.000
20
95.000
30
0.0
11
45.000
21
95.000
31
0.0
0
LINE
8
zones
62
1
10
45.000
20
95.000
30
0.0
11
45.000
21
5.000
31
0.0
0
TEXT
8
zones
62
1
10
47.000
20
7.000
30
0.0
40
2.5
1
zone1_phone
0
LINE
8
zones
62
1
10
50.000
20
25.000
30
0.0
11
115.000
21
25.000
31
0.0
0
LINE
8
zones
62
1
10
115.000
20
25.000
30
0.0
11
115.000
21
75.000
31
0.0
0
LINE
8
zones
62
1
10
115.000
20
75.000
30
0.0
11
50.000
21
75.000
31
0.0
0
LINE
8
zones
62
1
10
50.000
20
75.000
30
0.0
11
50.000
21
25.000
31
0.0
0
TEXT
8
zones
62
1
10
52.000
20
27.000
30
0.0
40
2.5
1
zone2_buds
0
LINE
8
zones
62
1
10
55.000
20
32.500
30
0.0
11
110.000
21
32.500
31
0.0
0
LINE
8
zones
62
1
10
110.000
20
32.500
30
0.0
11
110.000
21
87.500
31
0.0
0
LINE
8
zones
62
1
10
110.000
20
87.500
30
0.0
11
55.000
21
87.500
31
0.0
0
LINE
8
zones
62
1
10
55.000
20
87.500
30
0.0
11
55.000
21
32.500
31
0.0
0
TEXT
8
zones
62
1
10
57.000
20
34.500
30
0.0
40
2.5
1
zone3_watch
0
CIRCLE
8
ports
62
6
10
40.000
20
100.000
30
0.0
40
5.500
0
TEXT
8
ports
62
6
10
35.000
20
92.000
30
0.0
40
2.5
1
dc_jack
0
CIRCLE
8
ports
62
6
10
120.000
20
100.000
30
0.0
40
5.000
0
TEXT
8
ports
62
6
10
115.000
20
92.000
30
0.0
40
2.5
1
usbc_a
0
CIRCLE
8
ports
62
6
10
140.000
20
100.000
30
0.0
40
5.000
0
TEXT
8
ports
62
6
10
135.000
20
92.000
30
0.0
40
2.5
1
usbc_b
0
LINE
8
led_diffuser
62
4
10
17.500
20
0.000
30
0.0
11
147.500
21
0.000
31
0.0
0
LINE
8
led_diffuser
62
4
10
147.500
20
0.000
30
0.0
11
147.500
21
2.000
31
0.0
0
LINE
8
led_diffuser
62
4
10
147.500
20
2.000
30
0.0
11
17.500
21
2.000
31
0.0
0
LINE
8
led_diffuser
62
4
10
17.500
20
2.000
30
0.0
11
17.500
21
0.000
31
0.0
0
TEXT
8
led_diffuser
62
4
10
22.500
20
3.000
30
0.0
40
2.5
1
LED DIFFUSER
0
ENDSEC
0
EOF
